<?xml version="1.0" encoding="UTF-8" standalone="no"?>
<svg
   height="426.97043"
   version="1.1"
   viewBox="0 0 544.20984 426.97043"
   width="544.20984"
   id="svg2"
   xml:space="preserve"
   xmlns="http://www.w3.org/2000/svg"
   xmlns:svg="http://www.w3.org/2000/svg"><defs
     id="defs1" /><g
     id="g3137"
     transform="translate(-242.68668,-273.09615)"><path
       style="fill:#fef7e7"
       d="m 250.10841,698.93793 -3.28809,-0.94827 -1.95818,-3.21154 -1.95817,-3.21154 -0.004,-28.79966 -0.004,-28.79966 1.42501,-2.75565 1.425,-2.75566 2.65482,-1.20961 2.65482,-1.20962 7.05806,-1.00101 7.05806,-1.00102 5.6233,-2.27135 5.6233,-2.27135 5.48881,-4.17015 5.48882,-4.17015 2.81659,-3.57258 2.81659,-3.57258 3.18341,-6.71997 3.18341,-6.71998 v -10.54835 -10.54836 l -3.858,-7.80965 -3.85801,-7.80964 -5.73598,-5.73599 -5.73599,-5.73599 -6.12173,-3.05907 -6.12173,-3.05906 -7.28428,-1.16159 -7.28428,-1.1616 -3.74417,-0.97374 -3.74418,-0.97375 -1.50582,-2.91194 -1.50583,-2.91195 v -26.59932 -26.59932 l 1.46159,-2.82638 1.46158,-2.82639 4.05385,-1.62203 4.05384,-1.62203 35.23457,-4.00601 35.23457,-4.00601 71.5,-7.95412 71.5,-7.95413 24,-2.5694 24,-2.56939 59.5,-6.4971 59.5,-6.49709 46,-4.99929 46,-4.99928 22.31308,-2.47601 22.31307,-2.47602 h 5.01385 5.01385 l 2.92308,2.92308 2.92307,2.92308 v 35.15384 35.15385 l -2.87186,2.87187 -2.87187,2.87186 -2.87813,0.59702 -2.87814,0.59702 -6.33802,1.58907 -6.33802,1.58906 -5.8579,3.91176 -5.8579,3.91175 -4.0638,4.85376 -4.0638,4.85377 -2.56815,5.60957 -2.56814,5.60957 -0.54584,7.24004 -0.54583,7.24003 1.61968,6.31507 1.61968,6.31507 2.59489,4.42785 2.59489,4.42785 4.29934,4.75708 4.29933,4.75708 5.71113,3.43348 5.71113,3.43347 8.64867,2.29292 8.64866,2.29291 2.25,2.57938 2.25,2.57937 v 53.4939 53.49389 l -1.56641,3.02912 -1.56642,3.02912 -3.40147,1.42122 -3.40146,1.42122 h -60.38289 -60.3829 l -3.17033,-1.10518 -3.17033,-1.10518 -1.15038,-2.14482 -1.15038,-2.14482 -1.75902,-8.75833 -1.75903,-8.75834 -2.42833,-5.30418 -2.42833,-5.30418 -6.1099,-6.53149 -6.10989,-6.5315 -5.86272,-3.12479 -5.86272,-3.1248 -5.87864,-1.53119 -5.87864,-1.5312 h -7.15342 -7.15341 l -5.38215,1.02071 -5.38216,1.0207 -6.00433,2.81965 -6.00434,2.81965 -3.39039,2.86667 -3.39038,2.86667 -3.78699,4.79089 -3.78698,4.79089 -2.11695,5.65806 -2.11695,5.65806 -0.9315,7.34693 -0.9315,7.34693 -1.49379,2.88868 -1.4938,2.88868 -3.17961,1.10842 -3.1796,1.10841 -141.60078,-0.0902 -141.60078,-0.0902 z m 136.35684,-54.14834 3.05282,-1.57867 3.21334,-3.28669 3.21334,-3.28668 1.10434,-3.68596 1.10434,-3.68595 -0.70565,-4.7056 -0.70565,-4.7056 -4.06162,-4.40635 -4.06163,-4.40634 -5.52821,-1.60709 -5.5282,-1.6071 -4.7646,0.5643 -4.76459,0.56429 -4.01046,2.04599 -4.01046,2.04598 -2.80793,3.68139 -2.80794,3.68139 v 7.15568 7.15569 l 2.88297,3.77977 2.88297,3.77977 5.11703,2.44633 5.11703,2.44633 6.50798,-0.40311 6.50797,-0.4031 z m 159.93124,-67.7589 6,-2.26251 5.39015,-3.42803 5.39015,-3.42803 4.60985,-4.77761 4.60985,-4.77761 3.20766,-5.39516 3.20766,-5.39516 1.54234,-5.96009 1.54234,-5.9601 v -7.6084 -7.6084 l -1.61152,-5.4315 -1.61152,-5.43151 -2.52891,-4.99387 -2.5289,-4.99388 -6.60957,-6.5854 -6.60958,-6.5854 -6.5,-3.14476 -6.5,-3.14475 -7,-1.1005 -7,-1.1005 -6.48322,0.6791 -6.48322,0.6791 -6.08891,1.88068 -6.08891,1.88067 -5.92787,3.84311 -5.92787,3.84312 -5.70071,6.17541 -5.70072,6.17541 -2.99432,6.27404 -2.99432,6.27404 -1.03052,4.47219 -1.03051,4.47219 v 7 7 l 1.03639,4.5 1.0364,4.5 3.05152,6.19939 3.05151,6.19939 6.16723,5.92207 6.16723,5.92208 5.23496,2.65276 5.23496,2.65275 5.23545,1.47611 5.23545,1.4761 11,-0.38701 11,-0.38702 z M 248.119,446.50988 l -2.22251,-1.5567 v -2.26899 -2.26898 l 2.25,-2.07285 2.25,-2.07285 27,-13.48024 27,-13.48024 54,-27.73546 54,-27.73547 31.5,-16.52205 31.5,-16.52205 25.42249,-13.48372 25.4225,-13.48372 9.08902,-5.24731 9.08901,-5.24732 7.23493,-3.64345 7.23492,-3.64345 6.25357,-1.47444 6.25356,-1.47444 5.5,0.003 5.5,0.003 6.5,1.37988 6.5,1.37989 11,4.78114 11,4.78114 38,19.15879 38,19.1588 29,15.29105 29,15.29104 15.5,8.42594 15.5,8.42593 2.25,2.5016 2.25,2.5016 v 2.86245 2.86245 l -0.62118,1.61877 -0.62118,1.61877 -2.93342,1.51694 -2.93343,1.51693 -12.19539,1.418 -12.1954,1.41799 -61.5,6.5502 -61.5,6.55019 -59.5,6.49543 -59.5,6.49542 -17.5,1.96263 -17.5,1.96262 -40,4.54657 -40,4.54657 -34,4.00018 -34,4.00017 -14.5,1.94085 -14.5,1.94084 -14.89041,2.03303 -14.89042,2.03303 -6.10958,0.99167 -6.10959,0.99167 -4.52749,0.008 -4.52749,0.008 z m 346.2784,-88.98555 5.9211,-1.54225 3.37414,-2.57358 3.37413,-2.57358 1.97053,-3.13417 1.97053,-3.13417 -0.40097,-5.40709 -0.40097,-5.4071 -4.51001,-4.26119 -4.51001,-4.2612 -5.32619,-1.58171 -5.32619,-1.58171 h -4.137 -4.13699 l -5.27647,1.56695 -5.27647,1.56694 -4.34048,4.00092 -4.34048,4.00091 -0.64878,2.95387 -0.64878,2.95387 0.67799,4.01297 0.67799,4.01298 2.53203,3.00915 2.53203,3.00914 3.85867,1.96855 3.85868,1.96855 3.76553,0.88715 3.76553,0.88715 2.5399,0.10045 2.53991,0.10045 z"
       id="path3147" /><path
       style="fill:#fdf1d4"
       d="m 258.39649,699.16029 -8,-0.60174 -2.22708,-1.2689 -2.22708,-1.2689 -1.13981,-2.12975 -1.1398,-2.12975 0.0468,-29.28214 0.0468,-29.28215 1.09299,-2.04227 1.09299,-2.04227 1.94288,-1.0398 1.94287,-1.03979 8.78421,-1.49685 8.7842,-1.49685 7,-3.42294 7,-3.42293 5.81295,-5.81334 5.81295,-5.81334 2.91337,-6.09335 2.91337,-6.09335 1.22566,-7.14746 1.22565,-7.14746 -1.24134,-6.25919 -1.24134,-6.25919 -3.17803,-6.38354 -3.17803,-6.38355 -5.66513,-5.75377 -5.66513,-5.75377 -7.36747,-3.60828 -7.36748,-3.60827 -9.43124,-1.36913 -9.43125,-1.36912 -1.73401,-2.14141 -1.73401,-2.14141 -0.68963,-7.35947 -0.68964,-7.35947 0.38027,-20.3844 0.38027,-20.38441 1.19004,-2.11965 1.19005,-2.11965 3.58742,-1.70234 3.58742,-1.70234 30.19715,-3.44408 30.19716,-3.44408 44,-4.94059 44,-4.94059 41,-4.51189 41,-4.51189 60.5,-6.56542 60.5,-6.56542 32,-3.51082 32,-3.51082 23,-2.48451 23,-2.48451 27.5,-3.0377 27.5,-3.03769 5.81538,-0.0949 5.81538,-0.0949 2.68462,2.68462 2.68462,2.68462 v 34.95454 34.95455 l -2.61694,2.61694 -2.61695,2.61695 -6.88305,1.41942 -6.88306,1.41941 -6.38239,3.11421 -6.3824,3.11421 -5.80626,5.89711 -5.80626,5.89711 -2.57341,5.25985 -2.5734,5.25985 -1.09268,6.20322 -1.09268,6.20323 1.1381,6.76197 1.13811,6.76197 2.90643,6 2.90643,6 3.67013,4.28739 3.67014,4.28739 5.74829,3.90359 5.7483,3.9036 6.39178,1.99298 6.39177,1.99298 3.12442,0.61791 3.12442,0.61791 2.37558,2.5285 2.37558,2.52851 v 53.71327 53.71328 l -1.8023,2.75098 -1.80229,2.75098 -2.69771,1.17327 -2.6977,1.17327 -61,-0.0299 -61,-0.0299 -3,-1.44553 -3,-1.44553 -1.12541,-3.99245 -1.12541,-3.99245 -1.10547,-5.91056 -1.10547,-5.91057 -3.01136,-6.43512 -3.01135,-6.43512 -6.75776,-6.73025 -6.75777,-6.73026 -5.67623,-2.66846 -5.67624,-2.66845 -6.32376,-1.49082 -6.32377,-1.49082 -5.5,0.003 -5.5,0.003 -6.66308,1.41222 -6.66308,1.41223 -5.83692,2.75337 -5.83692,2.75337 -5.77838,5.76543 -5.77839,5.76543 -3.0587,6.53629 -3.0587,6.53629 -0.99888,6.76532 -0.99889,6.76532 -0.95242,3.74418 -0.95243,3.74418 -3.2116,1.75582 -3.21161,1.75582 -135.5,0.0977 -135.5,0.0977 z m 124.56077,-52.70439 5.42376,-1.61069 4.1565,-4.1565 4.15651,-4.1565 1.10331,-4.0974 1.10332,-4.09741 -0.6449,-3.38541 -0.6449,-3.38541 -1.26791,-2.5 -1.2679,-2.5 -2.83928,-2.69695 -2.83928,-2.69695 -3.90235,-1.63013 -3.90236,-1.63012 -6.09764,-0.0713 -6.09765,-0.0713 -4.75624,2.26148 -4.75624,2.26148 -2.46746,2.93241 -2.46746,2.93241 -1.12085,4.16252 -1.12085,4.16252 0.62316,3.89699 0.62315,3.89698 1.47035,2.84333 1.47034,2.84334 3.47284,2.64886 3.47284,2.64887 4.27821,1.33593 4.27821,1.33593 2.5685,0.0669 2.5685,0.0669 z m 162.96276,-68.76272 7.23816,-2.51718 5.11915,-3.39996 5.11916,-3.39996 4.83814,-4.90475 4.83814,-4.90475 3.37018,-6.02156 3.37018,-6.02156 1.5269,-6.47844 1.5269,-6.47844 0.0148,-5.5399 0.0148,-5.5399 -1.52839,-5.8679 -1.52839,-5.86789 -3.60261,-6.85577 -3.6026,-6.85577 -5.95473,-5.51303 -5.95473,-5.51302 -4.66427,-2.36189 -4.66428,-2.36188 -5.4315,-1.61152 -5.4315,-1.61153 h -8.6084 -8.6084 l -5.717,1.48909 -5.71701,1.48909 -6.24309,3.15016 -6.2431,3.15016 -7.03039,7.11075 -7.0304,7.11075 -3.1946,6.09307 -3.1946,6.09307 -1.51022,6.40693 -1.51022,6.40693 -0.0148,4.70078 -0.0148,4.70078 1.09698,5.29922 1.09697,5.29922 3.37109,7.10547 3.37109,7.10547 6.4438,6.02787 6.44381,6.02786 5.39693,2.64047 5.39693,2.64047 6.4412,1.46365 6.4412,1.46364 8.64269,-0.41556 8.64268,-0.41556 z m -297.82353,-131.8266 -1.2,-1.2 v -2.14501 -2.14501 l 1.75,-1.56446 1.75,-1.56445 34,-17.23766 34,-17.23766 51.5,-26.4739 51.5,-26.47389 47.5,-25.02779 47.5,-25.0278 12.5,-7.00756 12.5,-7.00756 8.02843,-4.30755 8.02843,-4.30755 6.47088,-1.65776 6.47089,-1.65777 9.50069,0.49978 9.50068,0.49978 7,2.33918 7,2.33917 40.5,20.12603 40.5,20.12604 32,16.79142 32,16.79143 16.5,8.94634 16.5,8.94634 2.75,2.93472 2.75,2.93471 v 1.53388 1.53388 l -1.50667,2.9136 -1.50668,2.91359 -3.74332,0.98288 -3.74333,0.98289 -28.5,3.08579 -28.5,3.0858 -23,2.42012 -23,2.42012 -28.5,3.06858 -28.5,3.06858 -68.5,7.51159 -68.5,7.51158 -25.5,2.92685 -25.5,2.92686 -35.5,4.07164 -35.5,4.07164 -24,2.99769 -24,2.99768 -24.44764,3.4716 -24.44765,3.4716 h -5.60235 -5.60236 z m 350.18477,-88.84276 5.45979,-2.04277 3.4702,-3.84111 3.47021,-3.8411 0.69191,-4.09539 0.69191,-4.0954 -1.10323,-3.34282 -1.10323,-3.34283 -3.23116,-3.12668 -3.23117,-3.12669 -5,-2.21366 -5,-2.21366 -7,0.0101 -7,0.0101 -5.11826,2.2188 -5.11825,2.21881 -3.23936,3.34216 -3.23935,3.34217 -0.69795,3.34136 -0.69795,3.34136 0.69107,3.85817 0.69106,3.85816 1.91064,2.64184 1.91063,2.64183 6.35902,3.25 6.35902,3.25 h 6.80733 6.80733 z"
       id="path3146" /><path
       style="fill:#fde5ad"
       d="m 250.2748,697.62966 -3.1217,-1.35863 -1.6283,-2.32473 -1.62831,-2.32473 v -29.35442 -29.35441 l 2.83743,-2.83743 2.83742,-2.83742 4.91258,-0.61715 4.91257,-0.61715 5.84201,-1.49828 5.84201,-1.49828 4.70309,-2.38324 4.70309,-2.38323 5.12367,-4.60663 5.12367,-4.60662 3.12425,-4.71675 3.12425,-4.71675 2.05898,-6.77874 2.05897,-6.77873 -0.42439,-8.23488 -0.42439,-8.23488 -2.17643,-5.5 -2.17644,-5.5 -4.40261,-5.84855 -4.40261,-5.84856 -5.84856,-4.38593 -5.84856,-4.38593 -6,-2.04622 -6,-2.04622 -6,-0.60904 -6,-0.60905 -2.79296,-1.40814 -2.79296,-1.40815 -0.95704,-2.5172 -0.95704,-2.51721 v -25.3698 -25.3698 l 0.99595,-2.61953 0.99595,-2.61954 4.32604,-1.91362 4.32605,-1.91361 47.928,-5.47957 47.92801,-5.47956 78,-8.56809 78,-8.56808 23,-2.48347 23,-2.48347 36,-3.97117 36,-3.97118 37.5,-4.06333 37.5,-4.06334 36.37432,-3.96632 36.37432,-3.96632 h 3.9526 3.95261 l 2.92308,2.92308 2.92307,2.92308 v 34.06114 34.06115 l -2.75,2.99067 -2.75,2.99066 -7.12609,1.44548 -7.12609,1.44548 -5.34432,2.70817 -5.34432,2.70817 -6.32494,6.07352 -6.32494,6.07351 -3.19647,6.54795 -3.19647,6.54794 0.0449,10.5 0.0449,10.5 2.25937,5.72477 2.25937,5.72477 4.42205,6.00693 4.42205,6.00692 6.76554,4.43615 6.76554,4.43615 6,1.6958 6,1.69581 4.1013,1.41227 4.10129,1.41227 1.14871,2.52113 1.1487,2.52114 v 52.73044 52.73044 l -1.63069,2.32814 -1.63069,2.32814 -3.33719,1.39437 -3.33719,1.39436 -60.28212,-0.004 -60.28212,-0.004 -3.16071,-1.92727 -3.16071,-1.92726 -0.515,-1.819 -0.51501,-1.819 -1.15598,-7.19868 -1.15598,-7.19868 -3.45165,-7.20238 -3.45165,-7.20239 -6.33392,-6.21044 -6.33392,-6.21045 -5.5137,-2.6976 -5.51369,-2.6976 -5.36904,-1.42902 -5.36904,-1.42902 -8.5399,-0.0119 -8.5399,-0.0119 -5.9601,1.53045 -5.9601,1.53045 -5.31136,2.57313 -5.31137,2.57312 -5.45384,5.32465 -5.45383,5.32464 -3.43658,7.32178 -3.43657,7.32178 -1.12439,8.45806 -1.12438,8.45805 -1.00433,1.8766 -1.00433,1.87661 -3.38739,1.41534 -3.38739,1.41534 -141.28212,-0.0391 -141.28212,-0.0391 z m 133.69941,-50.70451 3.80975,-1.14143 3.68542,-3.03783 3.68541,-3.03782 1.84889,-4.07074 1.84889,-4.07075 0.022,-3.78211 0.022,-3.78212 -1.54772,-3.70424 -1.54773,-3.70423 -2.20227,-2.36097 -2.20228,-2.36096 -4,-2.11984 -4,-2.11985 -7.5,-0.0328 -7.5,-0.0328 -4.81598,2.37115 -4.81598,2.37115 -2.62675,3.96928 -2.62675,3.96929 -0.42343,5.85388 -0.42343,5.85388 2.20199,4.54871 2.20199,4.54871 2.87113,2.04442 2.87113,2.04443 3.79304,1.39209 3.79304,1.39209 4.88398,0.0705 4.88398,0.0705 z m 157.46218,-67.38018 5.9601,-1.52162 6.22394,-3.02822 6.22393,-3.02821 5.70176,-5.20017 5.70175,-5.20017 3.83907,-5.92787 3.83907,-5.92787 1.98524,-6.42746 1.98524,-6.42747 -0.0244,-8.14466 -0.0244,-8.14467 -1.01979,-4.42444 -1.01978,-4.42445 -3.20577,-6.53436 -3.20577,-6.53436 -6.11892,-6.27823 -6.11893,-6.27824 -7.38107,-3.49552 -7.38108,-3.49552 -7.72968,-1.19357 -7.72968,-1.19356 -8.27032,1.25652 -8.27032,1.25652 -8,3.73891 -8,3.73891 -6,5.57688 -6,5.57688 -3.48853,5.796 -3.48854,5.796 -2.23565,6.55782 -2.23564,6.55781 -0.0258,8.5685 -0.0258,8.5685 1.59538,5.4315 1.59538,5.4315 3.06634,5.79201 3.06633,5.792 5.7907,5.36117 5.79069,5.36116 5.64547,2.76207 5.64547,2.76207 5.15212,1.24972 5.15212,1.24971 8.5399,0.0851 8.53991,0.085 z m -292.96847,-134.04981 -1.57143,-1.57143 v -1.23744 -1.23745 l 1.25,-1.57694 1.25,-1.57694 35,-17.74477 35,-17.74478 38,-19.47587 38,-19.47588 13,-6.77555 13,-6.77556 39.5,-20.76118 39.5,-20.76119 18,-9.77274 18,-9.77275 9.75492,-5.44871 9.75491,-5.44871 5.74509,-1.8577 5.74508,-1.8577 9.5,-0.0276 9.5,-0.0276 9,2.93801 9,2.938 45.5,22.76443 45.5,22.76443 24,12.64643 24,12.64642 18.5,10.02949 18.5,10.0295 2.75,2.55874 2.75,2.55874 v 2.37865 2.37865 l -1.0608,1.98212 -1.0608,1.98213 -2.6892,1.02587 -2.6892,1.02587 -12,1.39641 -12,1.39642 -33.5,3.55633 -33.5,3.55634 -32.5,3.50658 -32.5,3.50659 -68.5,7.48531 -68.5,7.48532 -31,3.5464 -31,3.5464 -47,5.44321 -47,5.4432 -36.2038,4.99201 -36.2038,4.992 h -3.47477 -3.47477 z m 351.88345,-88.77929 5.25905,-2.40767 2.76659,-3.62719 2.7666,-3.62719 0.49978,-4.43411 0.49979,-4.4341 -0.62305,-2.48244 -0.62305,-2.48244 -2.63056,-3.12624 -2.63055,-3.12623 -5.11974,-2.65865 -5.11974,-2.65864 -9,-0.0404 -9,-0.0405 -5.11974,2.6991 -5.11973,2.69909 -2.59047,3.0786 -2.59048,3.0786 -0.65108,3.47056 -0.65108,3.47056 0.63564,3.38825 0.63564,3.38825 2.24925,3.33767 2.24926,3.33766 5.46497,2.73069 5.46496,2.73068 2.51143,0.45356 2.51143,0.45357 6.34791,-0.38168 6.34791,-0.38168 z"
       id="path3145" /><path
       style="fill:#fde09c"
       d="m 255.39649,698.37633 -3,-0.39058 -2.61631,-1.02553 -2.61631,-1.02553 -1.38369,-2.58544 -1.38369,-2.58544 v -28.19723 -28.19722 l 1.40482,-2.62493 1.40482,-2.62493 3.09518,-0.95532 3.09518,-0.95532 7.31977,-1.17326 7.31977,-1.17325 7.06865,-3.53631 7.06866,-3.5363 5.76386,-5.76386 5.76386,-5.76386 3.0562,-6.40369 3.0562,-6.4037 1.18056,-7.14858 1.18056,-7.14858 -1.22075,-6.29544 -1.22075,-6.29545 -2.97011,-6.07641 -2.97012,-6.07642 -4.43026,-5.06445 -4.43026,-5.06446 -5.26792,-3.48985 -5.26792,-3.48985 -4.93326,-1.66964 -4.93327,-1.66963 -7.78449,-1.10087 -7.78449,-1.10087 -2.28224,-2.42885 -2.28225,-2.42885 v -27.33874 -27.33874 l 2.35407,-2.50641 2.35407,-2.5064 4.64593,-1.07545 4.64593,-1.07544 18,-1.97644 18,-1.97643 53,-5.98222 53,-5.98223 41,-4.50457 41,-4.50458 33,-3.55562 33,-3.55562 59.5,-6.49775 59.5,-6.49775 13,-1.46408 13,-1.46408 9.5,-0.99495 9.5,-0.99496 32,-3.4556 32,-3.45561 2.69016,0.53705 2.69017,0.53705 1.80983,1.99985 1.80984,1.99985 v 34.9816 34.98159 l -2.66391,2.29141 -2.66392,2.2914 -6.23785,1.09877 -6.23784,1.09878 -6.42352,3.00593 -6.42352,3.00592 -6.24357,6.26731 -6.24357,6.26731 -2.64654,5.5 -2.64655,5.5 -1.01657,6.51697 -1.01656,6.51697 1.00955,6.48303 1.00955,6.48303 3.14313,6.5 3.14314,6.5 6.57928,6.50771 6.57927,6.5077 4.82229,2.34855 4.82229,2.34856 8.17771,2.14374 8.17771,2.14374 1.74845,3.5 1.74845,3.5 0.002,50.84888 0.002,50.84887 -1.54819,3.26257 -1.54819,3.26257 -2.70181,1.38415 -2.70181,1.38414 -56.5,0.3269 -56.5,0.32689 -5.28263,-0.64852 -5.28263,-0.64851 -2.47083,-2.17397 -2.47084,-2.17397 -1.45426,-8.47217 -1.45427,-8.47218 -3.53245,-7.14743 -3.53246,-7.14744 -6.89299,-6.5025 -6.89299,-6.5025 -5.55502,-2.62795 -5.55502,-2.62794 -6.8118,-1.60457 -6.81181,-1.60457 -8.31331,0.61533 -8.31331,0.61533 -6.18669,2.06709 -6.18669,2.0671 -4.65161,2.96331 -4.65161,2.96331 -4.66341,4.98556 -4.66341,4.98557 -3.04339,6.50357 -3.04339,6.50358 -1.3699,9.17028 -1.36989,9.17029 -1.94661,1.94661 -1.94661,1.94661 -4.82509,0.79324 -4.82508,0.79325 -136,-0.0902 -136,-0.0902 z m 132.4667,-53.11598 5.46669,-2.7244 2.91502,-4.71494 2.91501,-4.71493 -0.0486,-5.40869 -0.0486,-5.4087 -1.49026,-2.88184 -1.49025,-2.88184 -2.84285,-2.87233 -2.84286,-2.87234 -4,-1.83492 -4,-1.83491 -6.7609,-0.022 -6.76089,-0.022 -4.47736,2.10461 -4.47735,2.1046 -2.96967,3.38227 -2.96967,3.38226 -1.14648,4.2577 -1.14647,4.25769 1.19019,5.31836 1.1902,5.31836 3.06264,3.48816 3.06265,3.48816 2.81906,1.45779 2.81906,1.45779 3.7825,0.92794 3.78249,0.92795 4.5,-0.47774 4.5,-0.47773 z m 150.57245,-64.66991 7.71509,-1.47613 7.51691,-3.71418 7.51691,-3.71418 6.70286,-6.61041 6.70286,-6.61041 3.6666,-7.44927 3.66661,-7.44928 1.1706,-8.11606 1.17059,-8.11605 -1.29315,-7.23606 -1.29316,-7.23605 -3.85772,-7.70748 -3.85772,-7.70749 -6.3128,-6.06187 -6.3128,-6.06186 -5.20361,-2.63687 -5.20361,-2.63687 -5.7269,-1.49167 -5.7269,-1.49167 h -7.89556 -7.89556 l -6.14434,1.58519 -6.14435,1.58518 -6.65031,3.4863 -6.65032,3.48631 -7.09709,7.31925 -7.09709,7.31926 -3.48515,7.35926 -3.48516,7.35925 -1.1815,7.65205 -1.1815,7.65204 1.06738,6.34796 1.06738,6.34795 2.16592,5.74303 2.16592,5.74302 4.3371,5.76962 4.3371,5.76962 5.65178,4.18725 5.65179,4.18726 5.53856,2.07224 5.53857,2.07224 5.15331,0.86096 5.15331,0.86096 4.16204,0.1169 4.16203,0.1169 z m -287.03915,-134.51365 -3,-0.5197 -0.30055,-2.58085 -0.30056,-2.58085 1.30056,-1.05951 1.30055,-1.05952 30,-15.23144 30,-15.23145 43,-22.00993 43,-22.00993 33.5,-17.5117 33.5,-17.5117 32.5,-17.25618 32.5,-17.25618 12.5,-7.11012 12.5,-7.11012 5.5,-2.22586 5.5,-2.22585 13,0.0195 13,0.0195 8.5,3.37426 8.5,3.37426 46.5,23.31038 46.5,23.31037 31,16.43582 31,16.43581 10.5,5.95199 10.5,5.95198 1.5,2.64844 1.5,2.64844 -1.53632,2.75 -1.53633,2.75 -2.46367,1.14801 -2.46368,1.14801 -38.5,4.12514 -38.5,4.12513 -23,2.46019 -23,2.46019 -60.5,6.56237 -60.5,6.56237 -39.5,4.42376 -39.5,4.42376 -35.19906,4.0143 -35.19906,4.0143 -25.80094,3.05589 -25.80094,3.05589 -11.5,1.47765 -11.5,1.47766 -24.5,3.40956 -24.5,3.40956 -3.5,0.33809 -3.5,0.33809 z m 346.86918,-88.04714 5.4442,-2.03694 4.01613,-4.35699 4.01613,-4.35699 0.68497,-4.56769 0.68497,-4.56769 -2.17195,-4.48664 -2.17195,-4.48665 -4.62667,-3.06458 -4.62667,-3.06458 -4.05917,-1.12597 -4.05917,-1.12597 -6.38101,0.066 -6.38101,0.066 -6.3788,3.14028 -6.3788,3.14027 -2.49019,3.66464 -2.49019,3.66464 0.004,5.51787 0.004,5.51786 1.91112,3.13417 1.91113,3.13417 3.33513,2.51446 3.33514,2.51445 4.5,1.55364 4.5,1.55364 6.21249,0.0477 6.21249,0.0477 z"
       id="path3144" /><path
       style="fill:#fddc92"
       d="m 250.89649,697.36036 -1.5,-0.54834 -2.25,-2.04703 -2.25,-2.04703 v -30.15138 -30.15137 l 2.25183,-2.11548 2.25182,-2.11547 6.99818,-1.09038 6.99817,-1.09038 6.25136,-2.05044 6.25135,-2.05044 5.82564,-4.28859 5.82564,-4.28859 3.55243,-4.37943 3.55242,-4.37943 2.12535,-4.2195 2.12534,-4.2195 1.49524,-5.74059 1.49523,-5.7406 v -5.18457 -5.18457 l -1.98524,-6.42746 -1.98524,-6.42747 -3.85122,-5.92787 -3.85122,-5.92787 -4.47664,-4.09831 -4.47663,-4.09831 -4.52307,-2.6507 -4.52308,-2.6507 -7.82379,-2.00099 -7.82379,-2.00099 h -3.38549 -3.3855 l -2.45454,-2.45454 -2.45455,-2.45455 V 500.0463 472.9351 l 1.02965,-1.92391 1.02964,-1.9239 2.886,-1.49241 2.88599,-1.49241 52.33436,-5.96473 52.33436,-5.96474 63.5,-7.01942 63.5,-7.01942 33,-3.55942 33,-3.55942 55,-5.97517 55,-5.97518 8.5,-0.98871 8.5,-0.98872 28.5,-3.0483 28.5,-3.0483 17.5,-1.96156 17.5,-1.96156 5.75,-6.2e-4 5.75,-6.2e-4 1.92792,1.92792 1.92792,1.92792 0.64437,4.32208 0.64437,4.32208 -0.32229,30 -0.32229,30 -1.21178,2.11285 -1.21178,2.11285 -2.78822,1.06164 -2.78822,1.06164 -5.5,1.21331 -5.5,1.21332 -5.93975,2.97238 -5.93975,2.97238 -5.83339,5.56411 -5.83339,5.56411 -2.99106,6.07571 -2.99105,6.0757 -1.14715,6.16846 -1.14714,6.16845 1.13162,6.82912 1.13163,6.82912 3.46953,7.00243 3.46954,7.00242 4.21345,4.37088 4.21345,4.37087 5.86297,3.78941 5.86296,3.78942 8.68961,2.29555 8.6896,2.29556 1.70002,1.70001 1.70002,1.70002 0.67316,7.34414 0.67316,7.34414 -0.32902,46.83291 -0.32902,46.83291 -3.26577,2.91709 -3.26578,2.91709 h -62.42846 -62.42846 l -2.43168,-2.25 -2.43168,-2.25 -1.68588,-9 -1.68588,-9 -3.18749,-6.5 -3.1875,-6.5 -6.09081,-6.10862 -6.09081,-6.10862 -6.4099,-3.1246 -6.4099,-3.1246 -6.5,-1.64387 -6.5,-1.64387 -9,0.54182 -9,0.54182 -6.87925,2.50807 -6.87924,2.50807 -5.31174,3.65833 -5.31173,3.65833 -3.98755,5.16887 -3.98754,5.16887 -1.96024,4.5734 -1.96023,4.5734 -1.08562,5.4266 -1.08562,5.4266 -0.58275,4.72236 -0.58274,4.72236 -2.57773,2.02764 -2.57773,2.02764 -143.11515,-0.0789 -143.11514,-0.079 z m 132.38616,-49.70948 4.70402,-1.4157 3.57572,-2.72733 3.57572,-2.72734 2.49289,-5.44519 2.49289,-5.44519 -0.64019,-4.00354 -0.64019,-4.00354 -1.8671,-3.65823 -1.8671,-3.65824 -1.85641,-1.63348 -1.85641,-1.63349 -4.47736,-2.25283 -4.47735,-2.25282 -6.52265,-0.11369 -6.52264,-0.11369 -5.75133,2.8242 -5.75133,2.8242 -2.62813,4.48457 -2.62813,4.48457 -0.50191,4.45297 -0.50192,4.45297 1.64375,4.30408 1.64374,4.30409 3.31885,3.21675 3.31885,3.21676 4.91878,1.92065 4.91878,1.92065 3.59107,0.0468 3.59107,0.0468 z m 162.85539,-68.85836 6.74156,-2.47157 5.61226,-3.37718 5.61227,-3.37719 5.14618,-5.53871 5.14618,-5.53871 3.21881,-6.04274 3.21881,-6.04275 1.53119,-5.87864 1.53119,-5.87864 v -5.74068 -5.74068 l -1.13027,-5.29922 -1.13027,-5.29923 -2.40677,-5.45819 -2.40678,-5.4582 -3.95048,-5.23238 -3.95048,-5.23237 -6.54646,-4.67146 -6.54645,-4.67145 -7.21602,-2.52569 -7.21602,-2.52569 -9.5,0.0259 -9.5,0.0259 -7.78368,2.51626 -7.78369,2.51626 -6.22373,4.05492 -6.22373,4.05492 -3.63964,3.79059 -3.63964,3.79059 -3.45374,5.5 -3.45374,5.5 -2.25357,6 -2.25356,6 -0.51931,8 -0.5193,8 1.59649,6.22468 1.59648,6.22467 3.1378,6.21595 3.1378,6.21594 5.63938,5.57692 5.63938,5.57691 6.13408,3.22932 6.13408,3.22932 5.86592,1.48671 5.86592,1.48671 10,-0.38481 10,-0.3848 z M 248.28054,444.625 l -0.55319,-1.44159 0.33457,-1.80841 0.33457,-1.80842 33.5,-17.01667 33.5,-17.01668 47.5,-24.38966 47.5,-24.38966 37.69299,-19.82333 37.69298,-19.82332 23.30702,-12.38935 23.30701,-12.38935 8.57428,-5.06589 8.57428,-5.06588 5.55352,-2.45603 5.55353,-2.45603 5.17142,-1.10907 5.17142,-1.10908 h 6.74068 6.74068 l 5.90943,1.53922 5.90944,1.53921 10.55066,4.57785 10.55066,4.57786 33.5,16.85135 33.5,16.85136 33,17.33149 33,17.3315 15.2483,8.3037 15.24829,8.3037 2.53296,3.01024 2.53295,3.01025 -0.65364,2.13614 -0.65363,2.13613 -0.99624,1.2454 -0.99624,1.2454 -3.63137,0.98676 -3.63138,0.98676 -33,3.50288 -33,3.50288 -32.5,3.48988 -32.5,3.48988 -33,3.56018 -33,3.56018 -62.5,6.92895 -62.5,6.92894 -35.5,4.05803 -35.5,4.05804 -29,3.4378 -29,3.43781 -32.66637,4.54012 -32.66637,4.54011 h -5.11501 -5.11502 z m 352.40641,-87.72811 6.29047,-2.99547 2.60869,-3.942 2.60869,-3.942 0.3927,-4.72542 0.39269,-4.72542 -2.30033,-3.9584 -2.30034,-3.95841 -3.99151,-2.77201 -3.99152,-2.77201 -6.43262,-1.62419 -6.43262,-1.62419 -5.06738,0.64397 -5.06738,0.64397 -5.20409,2.51173 -5.2041,2.51172 -2.5196,2.99438 -2.51961,2.99438 -1.06484,3.95453 -1.06484,3.95453 1.14193,4.24084 1.14194,4.24083 1.92074,2.69742 1.92073,2.69743 5.27117,2.57894 5.27118,2.57895 4.4547,0.84536 4.45469,0.84537 4.5,-0.44968 4.5,-0.44968 z"
       id="path3143" /><path
       style="fill:#fdd26d"
       d="m 250.22523,696.60882 -3.17126,-1.37947 -1.07874,-2.01564 -1.07874,-2.01564 v -29.1112 -29.11119 l 2.37445,-2.37445 2.37444,-2.37444 4.87556,-0.6116 4.87555,-0.6116 5.84201,-1.49828 5.84201,-1.49828 5.10405,-2.58642 5.10404,-2.58641 5.90758,-5.63381 5.90759,-5.63381 2.51236,-4.2858 2.51237,-4.2858 1.884,-6.05329 1.88399,-6.05329 v -6.72941 -6.7294 l -1.59346,-5.4315 -1.59345,-5.43151 -2.95731,-5.21046 -2.95731,-5.21046 -4.19924,-4.31999 -4.19923,-4.31999 -4.58292,-3.15264 -4.58292,-3.15263 -6.33412,-2.13381 -6.33411,-2.13381 -5.08297,-0.5154 -5.08296,-0.51539 -2.78821,-1.05486 -2.78822,-1.05486 -0.96178,-1.7971 -0.96179,-1.79711 v -26.48396 -26.48395 l 0.62334,-1.62439 0.62333,-1.62438 3.73113,-1.90348 3.73112,-1.90348 31.39554,-3.6007 31.39554,-3.6007 58,-6.46882 58,-6.46881 78.5,-8.49849 78.5,-8.4985 17.5,-1.97845 17.5,-1.97845 37.5,-4.05151 37.5,-4.05152 35.93997,-3.95595 35.93997,-3.95595 h 4.35548 4.35549 l 2.45455,2.45455 2.45454,2.45455 v 34.37114 34.37114 l -2.27978,2.14174 -2.27978,2.14174 -7.24214,1.52343 -7.24214,1.52343 -4.22808,2.12828 -4.22808,2.12828 -4.8368,3.63086 -4.8368,3.63086 -4.4154,5.85202 -4.4154,5.85201 -2.13232,7.02018 -2.13231,7.02019 0.5379,7.6278 0.5379,7.6278 2.19624,5.82423 2.19624,5.82423 4.65845,6.17577 4.65845,6.17577 6.99193,4.72824 6.99192,4.72824 8.5,2.15963 8.5,2.15963 2.25,2.4179 2.25,2.41789 v 53.00998 53.00998 l -1.08049,2.01891 -1.08049,2.01892 -3.38739,1.41534 -3.38739,1.41534 h -60.08178 -60.08178 l -2.87947,-1.48903 -2.87947,-1.48903 -0.53449,-1.76097 -0.53449,-1.76097 -1.07208,-7 -1.07207,-7 -3.30157,-7 -3.30156,-7 -5.17499,-5.65361 -5.175,-5.65362 -4.9938,-3.20452 -4.9938,-3.20451 -7.53204,-2.39187 -7.53204,-2.39187 h -8.7518 -8.75181 l -5.9601,1.53045 -5.9601,1.53045 -5.34937,2.59172 -5.34937,2.59172 -5.76261,5.63871 -5.76261,5.63871 -2.78854,5.48912 -2.78853,5.48912 -1.33761,5 -1.33762,5 -0.0174,3 -0.0174,3 -1.06348,3.82989 -1.06349,3.82988 -3.39882,1.42012 -3.39882,1.42011 -141.28212,-0.0391 -141.28212,-0.0391 z m 133.16992,-48.64621 4.3843,-1.10398 4.19436,-3.59022 4.19435,-3.59021 1.84221,-4.05581 1.8422,-4.05581 0.022,-3.78211 0.022,-3.78212 -1.55304,-3.71788 -1.55305,-3.71789 -2.69695,-2.84158 -2.69696,-2.84158 -4,-2.08941 -4,-2.0894 -7.51434,-0.069 -7.51435,-0.069 -4.9765,2.55465 -4.97651,2.55464 -2.94496,4.19018 -2.94497,4.19017 -0.43034,5.9495 -0.43035,5.94949 2.21853,4.58288 2.21853,4.58287 3.23836,2.47002 3.23836,2.47002 3.90927,1.43233 3.90927,1.43233 4.30718,0.0705 4.30718,0.0705 z m 158.04124,-67.41764 5.9601,-1.52162 6.34973,-3.09014 6.34972,-3.09014 6.94006,-6.5469 6.94007,-6.54691 3.40896,-6.0958 3.40897,-6.0958 1.55125,-5.95564 1.55124,-5.95563 -0.0119,-7.5399 -0.0119,-7.53991 -1.38184,-5.19015 -1.38183,-5.19015 -2.8563,-5.76809 -2.8563,-5.76808 -6.5,-6.65831 -6.5,-6.6583 -6.378,-3.21247 -6.378,-3.21247 -6.622,-1.40362 -6.622,-1.40363 h -4.5 -4.5 l -6.97131,1.47671 -6.97131,1.47672 -7.39983,3.51416 -7.39983,3.51417 -7.15926,7.24175 -7.15925,7.24176 -3.18841,6.08146 -3.18841,6.08145 -1.53119,5.87865 -1.5312,5.87864 v 7.0798 7.07981 l 1.5312,5.87864 1.53119,5.87864 3.12479,5.86272 3.1248,5.86272 6.25588,5.85207 6.25588,5.85207 5.68601,2.7819 5.68601,2.78191 5.15212,1.24972 5.15212,1.24971 8.5399,0.0851 8.53991,0.085 z m -292.3399,-135.67839 -1.2,-1.2 v -1.14501 -1.14501 l 1.75,-1.53637 1.75,-1.53638 33,-16.74817 33,-16.74817 40,-20.48762 40,-20.48762 12,-6.26904 12,-6.26903 39.5,-20.75699 39.5,-20.75699 18,-9.77274 18,-9.77275 9.75492,-5.44871 9.75491,-5.44871 5.74509,-1.88534 5.74508,-1.88535 10.5,0.0923 10.5,0.0922 9,3.32943 9,3.32943 44.5,22.28525 44.5,22.28525 24,12.64194 24,12.64193 18.5,10.03224 18.5,10.03224 2.25,2.04322 2.25,2.04321 v 2.39143 2.39143 l -0.97912,1.82951 -0.97912,1.82951 -4.77088,1.07016 -4.77088,1.07016 -33,3.51666 -33,3.51666 -32.5,3.49103 -32.5,3.49102 -37.5,4.06648 -37.5,4.06648 -49.5,5.45845 -49.5,5.45844 -21.5,2.49074 -21.5,2.49075 -31,3.56711 -31,3.56712 -8.5,0.96935 -8.5,0.96935 -20,2.52286 -20,2.52285 -24.23752,3.45191 -24.23753,3.45191 h -3.81247 -3.81248 z m 351.75656,-87.55445 5.45656,-2.74555 2.90786,-3.6753 2.90786,-3.67531 0.50893,-4.51518 0.50892,-4.51518 -0.64872,-2.58473 -0.64873,-2.58472 -3.48297,-3.85524 -3.48298,-3.85524 -5.24164,-2.35632 -5.24165,-2.35633 -8.5,0.0347 -8.5,0.0347 -5,2.60882 -5,2.60882 -2.68638,2.84325 -2.68638,2.84324 -1.06362,2.8151 -1.06362,2.8151 0.022,3.1849 0.022,3.1849 1.86919,4.11609 1.86919,4.11609 3.36328,2.5653 3.36328,2.5653 2.99557,1.20626 2.99556,1.20627 3.5,0.80532 3.5,0.80532 6,-0.44743 6,-0.44742 z"
       id="path3142" /><path
       style="fill:#fdc951"
       d="m 253.02591,697.06586 -3.37059,-0.796 -2.12941,-2.12942 -2.12942,-2.12941 v -29.44445 -29.44444 l 2.15031,-2.15031 2.15031,-2.15031 8.84969,-1.38632 8.84969,-1.38631 7.14475,-3.49376 7.14474,-3.49376 4.99941,-4.49489 4.99941,-4.4949 3.10147,-4.83322 3.10147,-4.83323 2.07342,-5.91927 2.07342,-5.91928 -0.35178,-10.5 -0.35177,-10.5 -3.42883,-6.90089 -3.42883,-6.9009 -4.81761,-5.27122 -4.8176,-5.27123 -5.22083,-3.4586 -5.22084,-3.4586 -4.92117,-1.66553 -4.92116,-1.66552 -7.55521,-0.95791 -7.55521,-0.95791 -2.02362,-2.02362 -2.02363,-2.02362 v -27.36724 -27.36723 l 1.81159,-2.00178 1.81159,-2.00178 4.28603,-1.07924 4.28603,-1.07923 30.90238,-3.55361 30.90238,-3.5536 89.5,-9.89973 89.5,-9.89973 24.5,-2.63136 24.5,-2.63137 40,-4.39252 40,-4.39252 37.5,-4.07298 37.5,-4.07299 27,-2.93129 27,-2.93129 10.38569,-1.10759 10.38568,-1.1076 2.7346,1.13271 2.73459,1.1327 1.12972,2.47947 1.12972,2.47946 v 31.90589 31.9059 l -1.11045,2.43719 -1.11046,2.43718 -2.13954,1.08183 -2.13955,1.08183 -6.89697,1.54773 -6.89697,1.54773 -5.88429,3.1363 -5.88429,3.13629 -6.1038,6.52498 -6.1038,6.52498 -2.60403,5.56903 -2.60403,5.56903 -0.0109,12.09198 -0.0109,12.09197 3.84827,7.58168 3.84826,7.58168 4.38902,4.58063 4.38901,4.58063 5.43742,3.47827 5.43741,3.47828 8.32531,2.43216 8.3253,2.43217 1.61455,0.64029 1.61455,0.64029 1.13545,2.49204 1.13545,2.49204 v 50.88785 50.88784 l -0.95536,2.51281 -0.95537,2.5128 -2.75065,1.8023 -2.75066,1.80229 h -61.7662 -61.7662 l -2.00162,-2.00161 -2.00161,-2.00162 -1.59145,-8.49838 -1.59144,-8.49839 -2.47925,-5.46811 -2.47925,-5.46811 -3.943,-5.22246 -3.94299,-5.22246 -6.54646,-4.67146 -6.54645,-4.67145 -7.21602,-2.52551 -7.21602,-2.52552 -9.5,-0.0407 -9.5,-0.0407 -5.5,1.29231 -5.5,1.2923 -6.30893,3.05224 -6.30894,3.05224 -5.35502,5.27014 -5.35502,5.27014 -3.59437,7.31357 -3.59436,7.31356 -1.35599,9.23405 -1.356,9.23405 -1.24392,1.49884 -1.24392,1.49883 -3.64176,1.01154 -3.64177,1.01154 -138.5,-0.0968 -138.5,-0.0968 z m 132.01214,-49.15983 3.8736,-1.16056 3.91376,-3.35003 3.91376,-3.35004 1.70464,-4.46353 1.70464,-4.46353 -0.45326,-5.46569 -0.45326,-5.46568 -2.65033,-4.00492 -2.65032,-4.00491 -4.59722,-2.69415 -4.59722,-2.69415 -6.79141,-0.48593 -6.79141,-0.48592 -4.97074,1.65102 -4.97075,1.65102 -3.23518,3.16299 -3.23519,3.16299 -1.28501,2.56079 -1.28502,2.56078 -0.62479,3.28485 -0.62479,3.28485 1.08982,5.08165 1.08982,5.08164 3.64215,4.03981 3.64215,4.0398 4,1.82174 4,1.82174 6.38398,0.022 6.38398,0.022 z m 164.53509,-69.546 7.17665,-3.01542 4.82335,-3.56218 4.82335,-3.56218 3.68738,-3.82683 3.68738,-3.82684 3.53288,-5.89178 3.53288,-5.89178 1.48049,-5.10822 1.48048,-5.10822 0.63861,-6.5 0.63861,-6.5 -1.53604,-7.2523 -1.53603,-7.2523 -3.80332,-7.24468 -3.80332,-7.24469 -5.51299,-5.50301 -5.51299,-5.50302 -6.06846,-3.2188 -6.06847,-3.21881 -5.87864,-1.53119 -5.87864,-1.5312 -7.53991,0.0148 -7.5399,0.0148 -6.39688,1.50787 -6.39689,1.50788 -7.10311,3.71711 -7.10312,3.71711 -6.5,6.51023 -6.5,6.51023 -3.12777,6 -3.12777,6 -1.75975,5.42208 -1.75975,5.42208 -0.0353,9.07792 -0.0353,9.07792 2.23452,6.69045 2.23452,6.69044 3.77674,5.84336 3.77674,5.84336 4.41155,3.80114 4.41154,3.80115 4.2977,2.53803 4.2977,2.53802 5.7023,1.87895 5.7023,1.87895 13.5,-0.34749 13.5,-0.3475 z m -298.8415,-132.96637 -1.66486,-0.44093 -0.51646,-1.34587 -0.51646,-1.34588 1.18132,-1.50039 1.18131,-1.5004 35,-17.74137 35,-17.74137 51.5,-26.48431 51.5,-26.48431 46.5,-24.49543 46.5,-24.49544 10.5,-5.80327 10.5,-5.80326 8,-4.59046 8,-4.59046 5.32786,-1.99706 5.32785,-1.99705 6.39883,-0.90619 6.39884,-0.90619 7.27331,1.00667 7.27331,1.00667 8,3.07267 8,3.07267 43.5,21.79041 43.5,21.79042 31.5,16.61477 31.5,16.61477 11.53683,6.39539 11.53682,6.39539 2.40112,2.55587 2.40111,2.55587 -0.9612,2.73317 -0.9612,2.73318 -2.47674,1.18257 -2.47674,1.18258 -37,4.04736 -37,4.04737 -24,2.55788 -24,2.55789 -13.5,1.45755 -13.5,1.45755 -42,4.56056 -42,4.56057 -48.5,5.40761 -48.5,5.4076 -35,4.00545 -35,4.00544 -29,3.48334 -29,3.48333 -32.86442,4.55 -32.86442,4.54999 -1.13558,-0.116 -1.13558,-0.116 z m 350.56183,-87.73287 5.61964,-2.74943 2.59281,-3.39936 2.59282,-3.39936 0.91915,-4.09086 0.91916,-4.09086 -1.04658,-3.8867 -1.04658,-3.8867 -2.60396,-3.09463 -2.60396,-3.09463 -5.11974,-2.628 -5.11974,-2.62799 -8.77769,-0.44649 -8.7777,-0.44648 -6.46734,3.18386 -6.46735,3.18387 -2.69822,3.53755 -2.69822,3.53755 -0.42052,5.81362 -0.42052,5.81363 2.28805,4.07104 2.28806,4.07105 3.66585,2.42594 3.66585,2.42595 4.40987,1.60378 4.40988,1.60379 7.63868,-0.34036 7.63867,-0.34035 z"
       id="path3141" /><path
       style="fill:#fdc232"
       d="m 250.39649,695.91185 -2,-1.09391 -1.25,-1.56681 -1.25,-1.56681 v -29.30887 -29.30887 l 1.92792,-1.92791 1.92792,-1.92792 4.82208,-0.65221 4.82208,-0.65221 5.8871,-1.4343 5.8871,-1.43431 5.98994,-3.1926 5.98993,-3.1926 5.62297,-5.62381 5.62296,-5.6238 2.71709,-4.99403 2.7171,-4.99402 1.5329,-5.88524 1.53291,-5.88523 v -6.1084 -6.1084 l -1.59346,-5.4315 -1.59345,-5.43151 -3.07808,-5.42153 -3.07807,-5.42153 -5.59146,-5.57847 -5.59146,-5.57847 -5.98701,-3.15836 -5.98701,-3.15836 -4,-1.06155 -4,-1.06155 -6.98232,-0.98757 -6.98233,-0.98757 -1.26767,-1.73365 -1.26768,-1.73365 v -27.23744 -27.23744 l 1.65518,-1.65518 1.65518,-1.65517 2.42389,-0.92157 2.4239,-0.92156 35.17093,-4.01402 35.17092,-4.01402 89.5,-9.90333 89.5,-9.90333 28.5,-3.05236 28.5,-3.05236 69,-7.5457 69,-7.54571 36.41578,-3.97927 36.41578,-3.97928 h 4.67923 4.67924 l 1.65499,1.82874 1.65498,1.82875 v 34.51627 34.51627 l -1.90342,1.72257 -1.90343,1.72258 -6.84657,1.42597 -6.84658,1.42597 -6.37342,3.12987 -6.37342,3.12986 -5.77475,5.77475 -5.77475,5.77474 -2.54983,4.35183 -2.54982,4.35183 -1.55201,5.9601 -1.552,5.9601 v 5.0798 5.07981 l 1.53291,5.88523 1.53291,5.88524 2.68272,4.92904 2.68272,4.92904 3.91412,4.44667 3.91411,4.44667 5.73032,3.89138 5.73032,3.89139 5.88994,1.97452 5.88993,1.97453 3.77446,0.69912 3.77447,0.69912 1.47553,2.10663 1.47554,2.10663 v 53.27749 53.27749 l -1.97456,1.97457 -1.97456,1.97456 -2.27544,0.55933 -2.27544,0.55932 -61.20046,-0.28389 -61.20046,-0.28389 -1.15367,-1.15413 -1.15367,-1.15413 -1.84203,-9.18225 -1.84204,-9.18225 -3.05439,-6.52708 -3.05438,-6.52707 -7.24945,-7.21607 -7.24945,-7.21608 -5.67198,-2.66285 -5.67198,-2.66286 -5.78812,-1.50761 -5.78811,-1.50762 -7.53991,0.0148 -7.5399,0.0148 -6.32495,1.49109 -6.32496,1.4911 -5.67504,2.7301 -5.67505,2.73009 -6.12072,6.04216 -6.12073,6.04216 -2.51775,4.97187 -2.51775,4.97186 -1.61152,5.43151 -1.61153,5.4315 -0.006,3.0685 -0.006,3.06849 -0.99749,3.59089 -0.9975,3.59088 -2.54398,1.15912 -2.54398,1.15911 -142.20295,-0.0304 -142.20295,-0.0304 z m 137.01311,-48.5949 4.01311,-2.0493 2.88001,-2.85054 2.88002,-2.85053 1.83491,-4 1.83492,-4 0.0164,-3 0.0164,-3 -1.10735,-4 -1.10734,-4 -4.63708,-4.63907 -4.63708,-4.63908 -5.4315,-1.61092 -5.4315,-1.61093 h -3.20366 -3.20367 l -5.04322,1.62878 -5.04322,1.62878 -3.70076,3.05048 -3.70076,3.05048 -1.84889,4.07074 -1.84889,4.07074 -0.022,4.93428 -0.022,4.93428 2.0898,4.31693 2.08979,4.31694 3.62301,2.98639 3.62301,2.98638 4.03719,1.4944 4.0372,1.4944 6.5,-0.33216 6.5,-0.33216 z m 159.98689,-67.67252 7,-2.65442 5.43211,-3.59284 5.43211,-3.59284 4.90842,-5.11887 4.90842,-5.11888 3.35823,-6.00446 3.35822,-6.00446 1.55125,-5.95564 1.55124,-5.95563 v -7.6084 -7.6084 l -1.59635,-5.4315 -1.59635,-5.43151 -3.52877,-6.75239 -3.52878,-6.75239 -6.55621,-6.13302 -6.55621,-6.13301 -7.06866,-3.33502 -7.06867,-3.33501 -7.38639,-1.12776 -7.3864,-1.12776 -5.6136,0.6523 -5.61361,0.6523 -5.44772,1.5313 -5.44772,1.53129 -6.05228,3.05063 -6.05228,3.05063 -7.53364,7.61396 -7.53365,7.61395 -3.18516,6.08146 -3.18516,6.08145 -1.53119,5.87865 -1.5312,5.87864 v 7.0798 7.07981 l 1.5312,5.87864 1.53119,5.87864 3.11918,5.85218 3.11918,5.85218 6.7266,6.34554 6.7266,6.34553 5.37303,2.60807 5.37302,2.60806 5.5,1.526 5.5,1.526 11,-0.38418 11,-0.38419 z M 249.22836,443.48904 248.623,441.9115 l 1.38675,-1.31605 1.38674,-1.31605 30,-15.24022 30,-15.24023 43,-22.01722 43,-22.01721 42,-21.97422 42,-21.97423 23.5,-12.50476 23.5,-12.50477 10,-5.74083 10,-5.74083 5.23085,-2.63628 5.23084,-2.63629 6.26916,-1.47808 6.26915,-1.47808 5.06634,-0.0148 5.06634,-0.0148 5.81403,1.07479 5.81403,1.07478 10.61963,4.53122 10.61963,4.53122 39.5,19.85931 39.5,19.8593 26,13.63065 26,13.63065 17.5,9.52586 17.5,9.52585 1.75,1.53317 1.75,1.53318 v 2.77358 2.77359 l -1.48018,1.48018 -1.48018,1.48018 -3.76982,0.57672 -3.76982,0.57672 -23,2.49203 -23,2.49204 -19.5,2.05236 -19.5,2.05237 -32.5,3.50486 -32.5,3.50485 -72.5,7.94646 -72.5,7.94646 -40,4.54554 -40,4.54554 -34,3.99193 -34,3.99192 -11.5,1.53337 -11.5,1.53337 -24.44764,3.44798 -24.44765,3.44797 h -4.33374 -4.33374 z m 343.86891,-82.54566 5.29922,-1.12321 3.5,-1.78916 3.5,-1.78917 3.18867,-3.33763 3.18867,-3.33763 1.06133,-2.8151 1.06133,-2.8151 v -3.46701 -3.46702 l -1.38076,-3.21788 -1.38075,-3.21789 -3.36925,-3.19877 -3.36924,-3.19878 -5,-2.25218 -5,-2.25219 -8,-0.0303 -8,-0.0303 -5.22705,2.34449 -5.22705,2.34449 -3.94577,4.28065 -3.94577,4.28066 -0.67948,4.53109 -0.67947,4.53109 1.18823,3.60038 1.18824,3.60039 2.45628,2.91913 2.45629,2.91914 3.28915,2.0328 3.28914,2.0328 5.41863,1.45685 5.41863,1.45685 2.20078,0.0658 2.20078,0.0658 z"
       id="path3140" /><path
       style="fill:#fdbd23"
       d="m 252.16642,696.36346 -2.23008,-0.43076 -2.06232,-2.62182 -2.06233,-2.62183 0.2924,-28.9008 0.2924,-28.9008 2.27592,-1.84172 2.27593,-1.84171 5.72407,-0.69752 5.72408,-0.69751 6.07213,-1.85645 6.07213,-1.85644 5.92787,-3.85122 5.92787,-3.85122 4.09832,-4.47664 4.09831,-4.47663 2.56622,-4.4369 2.56623,-4.43691 1.58546,-5.4315 1.58546,-5.4315 v -8.14036 -8.14036 l -1.67861,-4.92814 -1.67861,-4.92814 -3.23596,-5.5 -3.23596,-5.5 -4.83543,-4.83886 -4.83543,-4.83885 -4.2551,-2.50916 -4.25511,-2.50915 -4.9013,-1.86235 -4.90131,-1.86235 -7.82966,-0.97206 -7.82965,-0.97205 -1.76393,-2.17837 -1.76394,-2.17836 0.0147,-25.63922 0.0147,-25.63922 1.26304,-2.5 1.26304,-2.5 3.79855,-1.24919 3.79856,-1.2492 31.17366,-3.52929 31.17366,-3.52928 53.5,-5.97752 53.5,-5.97752 22.5,-2.48141 22.5,-2.48141 60.5,-6.53221 60.5,-6.53222 22,-2.45938 22,-2.45939 27.5,-2.98213 27.5,-2.98214 24,-2.58482 24,-2.58482 17.5,-1.95342 17.5,-1.95341 2.79546,-6.2e-4 2.79545,-6.2e-4 2.45455,2.45455 2.45454,2.45455 v 33.37114 33.37114 l -2.25,2.1106 -2.25,2.1106 -7.12609,1.48408 -7.12609,1.48408 -5.34432,2.70817 -5.34432,2.70817 -6.27472,6.02529 -6.27471,6.02529 -2.39575,4.09617 -2.39575,4.09617 -1.60912,5.43151 -1.60913,5.4315 v 7.21316 7.21316 l 1.97668,6.35534 1.97668,6.35533 4.15384,6.32992 4.15383,6.32991 5.11949,4.06615 5.11948,4.06615 5.93501,2.82145 5.93501,2.82144 5.46183,1.13387 5.46182,1.13388 2.35317,2.35316 2.35316,2.35317 v 52.48969 52.48969 l -2.41329,2.80576 -2.41329,2.80576 h -62.55083 -62.55084 l -1.66903,-1.66887 -1.66904,-1.66887 -1.39327,-8.33113 -1.39327,-8.33113 -3.42692,-7 -3.42693,-7 -4.52873,-5.14087 -4.52872,-5.14087 -5.6703,-3.76372 -5.6703,-3.76373 -7.59762,-2.43632 -7.59762,-2.43632 -12,0.44039 -12,0.44039 -6,2.30151 -6,2.3015 -5.74125,3.88034 -5.74125,3.88035 -3.96422,5.25056 -3.96421,5.25057 -2.527,5.51969 -2.527,5.51969 -1.06897,7.94842 -1.06896,7.94842 -0.54493,1.84129 -0.54493,1.84129 -3.37152,1.40871 -3.37152,1.40871 -140.28212,-0.13618 -140.28212,-0.13618 z m 135.23007,-48.68017 5,-2.36375 2.69696,-2.87648 2.69695,-2.87648 1.55305,-3.71788 1.55304,-3.71788 v -4.82023 -4.82023 l -2.25,-4.44751 -2.25,-4.44751 -4.27525,-3.22435 -4.27526,-3.22434 -3.72474,-1.03446 -3.72475,-1.03445 -5.5,-0.005 -5.5,-0.005 -6.18844,2.92764 -6.18845,2.92764 -2.78675,4.21106 -2.78674,4.21105 -0.38519,6.81679 -0.38518,6.81678 2.16071,4.46344 2.16071,4.46343 3.45317,2.63386 3.45316,2.63385 3.7465,1.37598 3.7465,1.37598 6.5,0.0607 6.5,0.0607 z m 155.0399,-66.13832 5.9601,-1.52162 6.02814,-2.93182 6.02813,-2.93182 6.40504,-5.79623 6.40505,-5.79623 3.83158,-5.9282 3.83158,-5.92821 2.06187,-6.57213 2.06186,-6.57213 0.10026,-8 0.10026,-8 -1.29904,-5.5 -1.29905,-5.5 -3.62382,-7 -3.62383,-7 -6.00417,-6 -6.00416,-6 -6.09292,-3.22499 -6.09291,-3.225 -6.40693,-1.51022 -6.40694,-1.51022 -7.0399,-0.0148 -7.0399,-0.0148 -5.9601,1.51504 -5.9601,1.51503 -7.06545,3.44838 -7.06545,3.44839 -6.43455,5.92143 -6.43455,5.92144 -3.48853,5.80733 -3.48854,5.80733 -2.23565,6.55782 -2.23564,6.55781 -0.0258,9.64467 -0.0258,9.64466 1.98525,6.42747 1.98524,6.42746 3.83462,5.92787 3.83463,5.92787 5.23794,4.70474 5.23793,4.70473 5.38352,2.63391 5.38351,2.6339 4.80868,1.32195 4.80868,1.32194 10.0399,0.0894 10.03991,0.0894 z m -292.36025,-137.76192 -1.06524,-1.28354 0.70283,-1.1372 0.70283,-1.13721 29.98997,-15.20491 29.98996,-15.20491 43,-22.02459 43,-22.02458 42,-21.97542 42,-21.97542 23.5,-12.482 23.5,-12.48199 11.25494,-6.4573 11.25494,-6.4573 6.54148,-2.96605 6.54148,-2.96605 7.7745,-1.09946 7.7745,-1.09946 7.63626,1.55726 7.63626,1.55726 9.79282,4.16969 9.79282,4.1697 32.53675,16.28046 32.53674,16.28047 26.46326,13.75741 26.46325,13.75741 13,6.96849 13,6.96849 11.57848,6.37887 11.57848,6.37888 1.75188,1.9358 1.75188,1.9358 -0.33036,2.3231 -0.33036,2.3231 -2.76634,1.32177 -2.76634,1.32176 -8.73366,0.91155 -8.73366,0.91155 -13,1.52079 -13,1.52079 -28.5,2.98364 -28.5,2.98365 -37.5,4.03129 -37.5,4.03129 -27,2.97323 -27,2.97323 -45,5.00036 -45,5.00036 -31,3.52188 -31,3.52188 -34,4.01926 -34,4.01926 -11.5,1.52762 -11.5,1.52762 -24.44764,3.44798 -24.44765,3.44797 h -2.67991 -2.67991 z m 351.49026,-85.31744 5.6336,-2.89903 3.01516,-3.74016 3.01516,-3.74016 0.45308,-5.46365 0.45309,-5.46365 -0.64538,-2.5714 -0.64538,-2.5714 -3.48297,-3.85524 -3.48298,-3.85524 -5.24164,-2.35834 -5.24165,-2.35834 -9.5,-0.0112 -9.5,-0.0112 -5.42157,3 -5.42157,3 -2.97144,3.71064 -2.97144,3.71063 -0.48595,5.05742 -0.48595,5.05742 1.65413,4.33127 1.65412,4.33128 2.22484,2.05807 2.22483,2.05807 4.32999,2.23526 4.32999,2.23526 3.17001,0.81356 3.17001,0.81356 7.26816,-0.30719 7.26815,-0.3072 z"
       id="path3139" /><path
       style="fill:#fdbb18"
       d="m 260.0625,696.06658 -10.33399,-0.5 -1.41601,-1.94113 -1.41601,-1.94113 v -29.23744 -29.23744 l 1.56993,-1.56993 1.56993,-1.56992 2.18007,-0.41102 2.18007,-0.41101 6,-0.99648 6,-0.99647 5.6428,-2.12575 5.64279,-2.12575 6.48515,-4.90939 6.48515,-4.90938 4.05562,-6.07334 4.05562,-6.07334 2.14547,-5.73429 2.14548,-5.7343 0.54396,-6.50124 0.54397,-6.50125 -1.63743,-6.38709 -1.63744,-6.3871 -3.23557,-6.1129 -3.23557,-6.11291 -6.25682,-6.19069 -6.25683,-6.1907 -6.27063,-3.08702 -6.27063,-3.08702 -8.47254,-1.59084 -8.47255,-1.59084 -2.18335,-0.38377 -2.18335,-0.38376 -0.72053,-2.24768 -0.72052,-2.24768 0.1303,-25.38805 0.13031,-25.38805 0.54279,-1.71019 0.5428,-1.71019 2.56342,-1.16797 2.56341,-1.16797 34.66736,-4.01065 34.66736,-4.01065 22,-2.41482 22,-2.41483 32,-3.55638 32,-3.55637 22,-2.49378 22,-2.49377 15,-1.53652 15,-1.53652 22,-2.43953 22,-2.43952 19.5,-2.06915 19.5,-2.06914 17,-1.93996 17,-1.93995 19.5,-2.04229 19.5,-2.04229 8,-0.96123 8,-0.96123 33,-3.5264 33,-3.52639 13,-1.48311 13,-1.48312 6.12756,-0.01 6.12755,-0.01 1.37245,1.6537 1.37244,1.65369 v 33.93466 33.93466 l -2.1841,1.76858 -2.1841,1.76857 -6.3159,1.22478 -6.3159,1.22477 -6.45247,3.15525 -6.45247,3.15525 -6.54753,6.56746 -6.54753,6.56747 -2.21859,4.49223 -2.2186,4.49223 -1.64657,6.42718 -1.64656,6.42718 0.63198,6.16851 0.63198,6.1685 1.92888,5.6064 1.92889,5.60639 3.49406,5.25127 3.49407,5.25127 3.81023,3.68738 3.81023,3.68738 5.81248,3.48512 5.81248,3.48513 8.44169,2.23006 8.4417,2.23007 1.24583,1.50002 1.24582,1.50003 0.30107,50.30091 0.30106,50.30092 -1.10143,4.09039 -1.10143,4.09039 -2.69963,1.07101 -2.69964,1.07101 -57,-0.0963 -57,-0.0964 -4.17857,-0.0186 -4.17857,-0.0186 -1.39441,-1.39441 -1.39441,-1.39441 -1.70484,-8.85559 -1.70484,-8.85559 -3.13928,-6.5 -3.13928,-6.5 -7.0829,-7.10629 -7.0829,-7.1063 -4.45189,-2.26703 -4.4519,-2.26702 -5.5481,-1.92683 -5.54811,-1.92682 -8,-0.54865 -8,-0.54864 -7.5,1.5914 -7.5,1.5914 -6.5,3.18227 -6.5,3.18228 -6.08454,6.07512 -6.08455,6.07511 -3.09578,6.5 -3.09578,6.5 -1.14141,7 -1.14141,7 -0.9374,3.64652 -0.9374,3.64652 -1.74086,0.8005 -1.74087,0.8005 -133.5,0.053 -133.5,0.053 z m 127.01727,-47.75687 4.45646,-1.9713 3.63543,-3.74328 3.63543,-3.74329 1.67212,-5.0343 1.67213,-5.03431 -1.23176,-5.60832 -1.23175,-5.60833 -5.17706,-5.05883 -5.17706,-5.05883 -4.96861,-1.44062 -4.96861,-1.44063 -5.2604,0.12977 -5.2604,0.12976 -5.69616,2.86969 -5.69616,2.86969 -2.74438,3.5 -2.74439,3.5 -1.23018,4.65173 -1.23017,4.65173 1.28724,5.75202 1.28725,5.75201 4.64388,4.61105 4.64387,4.61105 5,1.69973 5,1.69973 5.61342,-0.35731 5.61341,-0.35731 z m 159.85547,-67.82179 7.46125,-2.68808 5.28857,-3.37887 5.28856,-3.37888 4.47501,-4.47501 4.475,-4.475 3.87019,-5.98793 3.87018,-5.98792 2.11625,-7.84292 2.11624,-7.84292 v -5.63268 -5.63268 l -1.11275,-5.29922 -1.11275,-5.29923 -3.36326,-7.33891 -3.36327,-7.33892 -7.27398,-7.17818 -7.27399,-7.17818 -5.07486,-2.69999 -5.07486,-2.7 -5.92514,-1.57788 -5.92514,-1.57789 -9.01198,-0.0139 -9.01199,-0.0139 -8.06642,2.54818 -8.06643,2.54819 -5.92159,3.84272 -5.92159,3.84272 -6.18136,6.63119 -6.18136,6.63118 -3.03524,6.35978 -3.03524,6.35978 -1.5334,5.88711 -1.5334,5.88711 v 6.0798 6.07981 l 1.54713,5.9601 1.54713,5.96009 2.43231,5.32594 2.43231,5.32593 6.58145,6.81719 6.58144,6.81719 5.68912,2.98465 5.68911,2.98465 5,1.56755 5,1.56756 2.5,0.4866 2.5,0.48661 9.53875,-0.37723 9.53875,-0.37723 z m -296.86207,-138.17134 0.32332,-1.75 9.5,-4.7955 9.5,-4.79551 41.5,-21.09231 41.5,-21.09231 18.5,-9.48776 18.5,-9.48777 12,-6.25132 12,-6.25132 51,-26.76719 51,-26.76719 12.5,-7.0196 12.5,-7.0196 9,-4.7568 9,-4.7568 5.96531,-1.71306 5.9653,-1.71305 9.5347,0.56132 9.53469,0.56133 5.5,1.95392 5.5,1.95392 11.5,5.26671 11.5,5.26671 37,18.73128 37,18.73128 30.5,16.2089 30.5,16.2089 11.36484,6.16141 11.36484,6.16141 1.35105,2.02242 1.35106,2.02242 -0.58105,2.22194 -0.58105,2.22194 -3.63484,1.00026 -3.63485,1.00025 -27.5,2.99693 -27.5,2.99693 -23.5,2.45829 -23.5,2.45829 -24,2.56472 -24,2.56473 -73,8.00843 -73,8.00842 -13,1.49877 -13,1.49876 -39,4.44525 -39,4.44525 -25.5,3.04307 -25.5,3.04306 -22,3.00298 -22,3.00299 -9.79005,1.48695 -9.79005,1.48695 h -5.53327 -5.53327 z m 347.78906,-82.03764 5.46574,-1.62185 4.68519,-4.54525 4.68519,-4.54526 1.28331,-4.33661 1.28331,-4.33662 -1.23813,-4.66338 -1.23812,-4.66339 -4.16371,-4.25956 -4.1637,-4.25956 -5.53241,-2.14742 -5.53241,-2.14741 -7,0.0327 -7,0.0328 -5.65668,2.16116 -5.65669,2.16116 -4.03036,4.37242 -4.03037,4.37243 -1.11708,4.14852 -1.11708,4.14852 1.51363,5.20669 1.51362,5.20669 3.29051,3.1842 3.2905,3.18421 4.87063,2.15137 4.87062,2.15138 4.62938,0.74275 4.62937,0.74276 3,-0.4258 3,-0.4258 z"
       id="path3138" /><path
       style="fill:#fdbc0c"
       d="m 251.21187,695.06495 -2.18463,-0.88555 -1.06537,-1.99067 -1.06538,-1.99066 v -28.06574 -28.06575 l 2,-2 2,-2 1.25,-0.0349 1.25,-0.0349 7.6437,-1.3633 7.6437,-1.36329 6.64309,-3.17046 6.64309,-3.17046 6.47883,-6.06062 6.47882,-6.06062 4.23439,-8.54535 4.23438,-8.54534 V 580.06658 568.4158 l -4.26743,-8.61204 -4.26744,-8.61205 -5.85553,-5.85553 -5.85553,-5.85553 -5.87703,-3.12284 -5.87704,-3.12284 -6.14434,-1.58419 -6.14435,-1.5842 h -4.10565 -4.10566 l -2,-2 -2,-2 V 500.00084 473.9351 l 0.97889,-1.82907 0.9789,-1.82908 3.2711,-1.14379 3.27111,-1.14379 26,-2.93093 26,-2.93092 84.5,-9.44125 84.5,-9.44124 20,-2.12525 20,-2.12525 37,-3.99194 37,-3.99195 17,-1.96669 17,-1.9667 23.5,-2.50513 23.5,-2.50512 46,-5.01401 46,-5.01401 7.7569,-0.63494 7.75689,-0.63495 1.99311,1.80373 1.9931,1.80374 v 33.69002 33.69003 l -1.95271,1.76718 -1.95272,1.76719 -6.79728,1.39773 -6.79729,1.39773 -6.42658,3.22932 -6.42659,3.22931 -6.12368,6.18424 -6.12369,6.18425 -2.66428,5.44117 -2.66428,5.44117 -1.011,4.38534 -1.011,4.38534 v 6 6 l 1.01978,4.42445 1.01979,4.42445 3.20577,6.53436 3.20576,6.53435 6,6.07206 6,6.07205 6.00226,3.14574 6.00225,3.14573 6.99775,1.71606 6.99774,1.71605 1.75,1.51234 1.75,1.51234 v 52.73423 52.73423 l -1.91164,2.36078 -1.91165,2.36078 h -62.53835 -62.53836 l -1.15413,-1.15413 -1.15413,-1.15413 -1.87018,-9.32253 -1.87017,-9.32253 -3.19642,-6.52334 -3.19641,-6.52334 -6.59131,-6.61547 -6.59131,-6.61548 -6.23106,-3.14543 -6.23107,-3.14544 -5.717,-1.48909 -5.717,-1.48909 h -8.24068 -8.24068 l -5.29923,1.09698 -5.29922,1.09697 -7.47654,3.54957 -7.47654,3.54957 -5.58316,5.60346 -5.58317,5.60345 -3.12514,6.27935 -3.12515,6.27935 -1.03953,5.22065 -1.03953,5.22065 -0.56664,4.61498 -0.56665,4.61497 -1.37828,1.88503 -1.37829,1.88502 -142.83069,0.19196 -142.83069,0.19196 z m 137.18462,-46.74507 4,-2.07804 3.19932,-3.33763 3.19932,-3.33763 1.55068,-3.71788 1.55068,-3.71788 -0.006,-3.78212 -0.006,-3.78212 -1.04897,-3.77733 -1.04898,-3.77733 -3.10543,-3.53689 -3.10543,-3.53689 -5.07053,-2.56943 -5.07053,-2.56944 -6.01949,-0.46568 -6.01949,-0.46567 -5.76559,2.17702 -5.7656,2.17701 -2.87134,2.41608 -2.87135,2.41607 -2.11306,4.49535 -2.11306,4.49534 v 4.64488 4.64488 l 1.22984,4.11601 1.22984,4.11602 4.02377,4 4.02377,4 4.49639,1.7367 4.49639,1.7367 7.5,-0.32103 7.5,-0.32103 z m 159.76551,-67.64062 6.7655,-2.60716 4.2345,-2.67197 4.23449,-2.67198 5.85334,-5.58078 5.85333,-5.58079 3.82991,-6.5 3.8299,-6.5 1.56676,-6.14434 1.56676,-6.14434 v -8.50033 -8.50032 l -1.96368,-6.35533 -1.96368,-6.35534 -3.5398,-6 -3.5398,-6 -6.14372,-5.7598 -6.14372,-5.7598 -6.1028,-2.99664 -6.1028,-2.99664 -7,-1.47619 -7,-1.4762 h -5 -5 l -6.81456,1.44392 -6.81457,1.44392 -7.57252,3.64223 -7.57253,3.64224 -7.67346,7.64648 -7.67347,7.64648 -3.63938,7.5 -3.63939,7.5 -1.02561,4.5 -1.02561,4.5 -0.0245,8.03991 -0.0245,8.0399 1.53291,5.88523 1.53291,5.88524 2.71709,5.0347 2.71709,5.03471 5.74761,6.16503 5.74761,6.16503 6.87614,3.61331 6.87614,3.61332 5.37625,1.51058 5.37625,1.51058 12,-0.38885 12,-0.38885 z m -297.61765,-137.37344 -0.62584,-1.01262 1.26093,-1.04648 1.26093,-1.04648 16.47806,-8.41942 16.47806,-8.41943 39,-19.79876 39,-19.79876 37,-19.20524 37,-19.20525 31,-16.27727 31,-16.27726 18,-9.78208 18,-9.78208 10,-5.59566 10,-5.59567 5.19916,-1.95533 5.19915,-1.95533 6.42272,-0.65802 6.42272,-0.65803 6.5347,1.13797 6.5347,1.13797 8.57242,3.45592 8.57241,3.45593 27.77101,13.70892 27.77101,13.70892 24,12.42956 24,12.42956 31,16.53902 31,16.53901 4.25,2.90162 4.25,2.90162 v 2.41677 2.41678 l -1.99216,1.06617 -1.99216,1.06617 -16.75784,1.9276 -16.75784,1.92759 -29,3.0654 -29,3.06541 -32.5,3.51201 -32.5,3.51202 -50.5,5.49573 -50.5,5.49574 -35.5,3.98943 -35.5,3.98943 -30.5,3.45673 -30.5,3.45673 -33.5,3.99286 -33.5,3.99286 -29.5,4.10657 -29.5,4.10658 -6.11315,0.54859 -6.11316,0.5486 z m 346.53863,-82.21512 6.39716,-1.97588 4.07857,-3.4911 4.07856,-3.4911 1.62961,-3.43415 1.62961,-3.43414 v -4.47675 -4.47675 l -1.42183,-3.37212 -1.42184,-3.37213 -3.32816,-3.19877 -3.32817,-3.19878 -5,-2.26391 -5,-2.26392 -9,-0.0373 -9,-0.0373 -5,2.30362 -5,2.30361 -2.8761,2.69639 -2.87609,2.69638 -1.85194,4 -1.85194,4 -0.0164,3 -0.0164,3 1.03285,3.71895 1.03285,3.71895 2.59183,3.08021 2.59184,3.08022 4.86566,2.46562 4.86566,2.46561 3.75408,0.88477 3.75407,0.88477 4.14467,0.10045 4.14466,0.10045 z"
       id="path3137" /></g></svg>
